<mxfile host="app.diagrams.net" modified="2023-01-26T05:04:36.446Z" agent="5.0 (X11)" etag="9KJHJ-D1_3Fm-cQ8q00R" version="20.8.11" type="github">
  <diagram id="Lr4wH8KPADNg2gOhHOSV" name="Page-1">
    <mxGraphModel dx="1053" dy="431" grid="1" gridSize="10" guides="1" tooltips="1" connect="1" arrows="1" fold="1" page="1" pageScale="1" pageWidth="850" pageHeight="1100" math="0" shadow="0">
      <root>
        <mxCell id="0" />
        <mxCell id="1" parent="0" />
        <mxCell id="hB3vme4C9sljqm-L_a4m-10" value="1..1" style="edgeStyle=orthogonalEdgeStyle;rounded=0;orthogonalLoop=1;jettySize=auto;html=1;exitX=1;exitY=0.038;exitDx=0;exitDy=0;exitPerimeter=0;entryX=0;entryY=0.5;entryDx=0;entryDy=0;" parent="1" source="hB3vme4C9sljqm-L_a4m-4" target="hB3vme4C9sljqm-L_a4m-8" edge="1">
          <mxGeometry x="-0.8328" relative="1" as="geometry">
            <mxPoint x="401" y="215" as="sourcePoint" />
            <mxPoint x="691" y="120" as="targetPoint" />
            <Array as="points">
              <mxPoint x="400" y="200" />
              <mxPoint x="610" y="200" />
              <mxPoint x="610" y="120" />
            </Array>
            <mxPoint as="offset" />
          </mxGeometry>
        </mxCell>
        <mxCell id="hB3vme4C9sljqm-L_a4m-11" value="0..*" style="edgeLabel;html=1;align=center;verticalAlign=middle;resizable=0;points=[];" parent="hB3vme4C9sljqm-L_a4m-10" vertex="1" connectable="0">
          <mxGeometry x="0.6727" y="-1" relative="1" as="geometry">
            <mxPoint x="31" y="-1" as="offset" />
          </mxGeometry>
        </mxCell>
        <mxCell id="EnAlKBGCW-vSRo4ymncd-7" value="1..1" style="edgeStyle=orthogonalEdgeStyle;rounded=0;orthogonalLoop=1;jettySize=auto;html=1;" edge="1" parent="1" source="hB3vme4C9sljqm-L_a4m-2" target="EnAlKBGCW-vSRo4ymncd-2">
          <mxGeometry x="-0.5" relative="1" as="geometry">
            <mxPoint as="offset" />
          </mxGeometry>
        </mxCell>
        <mxCell id="EnAlKBGCW-vSRo4ymncd-9" value="0..*" style="edgeLabel;html=1;align=center;verticalAlign=middle;resizable=0;points=[];" vertex="1" connectable="0" parent="EnAlKBGCW-vSRo4ymncd-7">
          <mxGeometry x="0.225" y="-1" relative="1" as="geometry">
            <mxPoint x="1" y="11" as="offset" />
          </mxGeometry>
        </mxCell>
        <mxCell id="hB3vme4C9sljqm-L_a4m-2" value="User" style="swimlane;fontStyle=0;childLayout=stackLayout;horizontal=1;startSize=30;horizontalStack=0;resizeParent=1;resizeParentMax=0;resizeLast=0;collapsible=1;marginBottom=0;whiteSpace=wrap;html=1;rounded=0;glass=0;sketch=0;swimlaneLine=1;" parent="1" vertex="1">
          <mxGeometry x="40" y="40" width="360" height="360" as="geometry">
            <mxRectangle x="620" y="180" width="60" height="30" as="alternateBounds" />
          </mxGeometry>
        </mxCell>
        <mxCell id="hB3vme4C9sljqm-L_a4m-3" value="&lt;div&gt;-UserID: Numeric&lt;br&gt;&lt;/div&gt;&lt;div&gt;-Username: String&lt;/div&gt;&lt;div&gt;-Password: Hash&lt;/div&gt;&lt;div&gt;-Email: String&lt;/div&gt;&lt;div&gt;-Name: String&lt;/div&gt;&lt;div&gt;-Phone Number: Numeric&lt;/div&gt;&lt;div&gt;-BankAccountNumber: Numeric&lt;br&gt;&lt;/div&gt;" style="text;strokeColor=none;fillColor=none;align=left;verticalAlign=middle;spacingLeft=4;spacingRight=4;overflow=hidden;points=[[0,0.5],[1,0.5]];portConstraint=eastwest;rotatable=0;whiteSpace=wrap;html=1;rounded=0;glass=0;sketch=0;" parent="hB3vme4C9sljqm-L_a4m-2" vertex="1">
          <mxGeometry y="30" width="360" height="110" as="geometry" />
        </mxCell>
        <mxCell id="hB3vme4C9sljqm-L_a4m-4" value="&lt;div&gt;+login&lt;/div&gt;&lt;div&gt;+logout&lt;/div&gt;&lt;div&gt;+changeUserData&lt;/div&gt;&lt;div&gt;+verifyEmail&lt;/div&gt;&lt;div&gt;+verifyPhoneNumber&lt;/div&gt;&lt;div&gt;+getSubscription&lt;/div&gt;&lt;div&gt;+makePayment&lt;br&gt;&lt;/div&gt;&lt;div&gt;+getSuggestion&lt;/div&gt;&lt;div&gt;+getCorrection&lt;/div&gt;&lt;div&gt;+generateLetter&lt;/div&gt;&lt;div&gt;+saveDocument&lt;/div&gt;&lt;div&gt;+viewDocument&lt;br&gt;&lt;/div&gt;&lt;div&gt;+sendDocument&lt;/div&gt;&lt;div&gt;+submitTicket&lt;/div&gt;&lt;div&gt;+viewTicket&lt;br&gt;&lt;/div&gt;" style="text;strokeColor=default;fillColor=none;align=left;verticalAlign=middle;spacingLeft=4;spacingRight=4;overflow=hidden;points=[[0,0.5],[1,0.5]];portConstraint=eastwest;rotatable=0;whiteSpace=wrap;html=1;rounded=0;glass=0;sketch=0;" parent="hB3vme4C9sljqm-L_a4m-2" vertex="1">
          <mxGeometry y="140" width="360" height="220" as="geometry" />
        </mxCell>
        <mxCell id="tCIc7TTYxGLn4JjtGP00-24" value="&lt;div&gt;1..1&lt;/div&gt;" style="edgeStyle=orthogonalEdgeStyle;rounded=0;orthogonalLoop=1;jettySize=auto;html=1;startArrow=none;startFill=0;" parent="1" source="hB3vme4C9sljqm-L_a4m-7" target="tCIc7TTYxGLn4JjtGP00-21" edge="1">
          <mxGeometry x="-0.8298" relative="1" as="geometry">
            <mxPoint as="offset" />
          </mxGeometry>
        </mxCell>
        <mxCell id="tCIc7TTYxGLn4JjtGP00-25" value="0..*" style="edgeLabel;html=1;align=center;verticalAlign=middle;resizable=0;points=[];" parent="tCIc7TTYxGLn4JjtGP00-24" vertex="1" connectable="0">
          <mxGeometry x="-0.1745" y="1" relative="1" as="geometry">
            <mxPoint x="113" y="1" as="offset" />
          </mxGeometry>
        </mxCell>
        <mxCell id="hB3vme4C9sljqm-L_a4m-7" value="Document" style="swimlane;fontStyle=0;childLayout=stackLayout;horizontal=1;startSize=30;horizontalStack=0;resizeParent=1;resizeParentMax=0;resizeLast=0;collapsible=1;marginBottom=0;whiteSpace=wrap;html=1;rounded=0;glass=0;sketch=0;swimlaneLine=1;" parent="1" vertex="1">
          <mxGeometry x="680" y="60" width="360" height="120" as="geometry">
            <mxRectangle x="620" y="180" width="60" height="30" as="alternateBounds" />
          </mxGeometry>
        </mxCell>
        <mxCell id="hB3vme4C9sljqm-L_a4m-8" value="&lt;div&gt;-Title: String&lt;/div&gt;&lt;div&gt;-CreationDate: Date&lt;br&gt;&lt;/div&gt;&lt;div&gt;-Content: FileData&lt;br&gt;&lt;/div&gt;" style="text;strokeColor=none;fillColor=none;align=left;verticalAlign=middle;spacingLeft=4;spacingRight=4;overflow=hidden;points=[[0,0.5],[1,0.5]];portConstraint=eastwest;rotatable=0;whiteSpace=wrap;html=1;rounded=0;glass=0;sketch=0;" parent="hB3vme4C9sljqm-L_a4m-7" vertex="1">
          <mxGeometry y="30" width="360" height="60" as="geometry" />
        </mxCell>
        <mxCell id="hB3vme4C9sljqm-L_a4m-9" value="+createDocument" style="text;strokeColor=default;fillColor=none;align=left;verticalAlign=middle;spacingLeft=4;spacingRight=4;overflow=hidden;points=[[0,0.5],[1,0.5]];portConstraint=eastwest;rotatable=0;whiteSpace=wrap;html=1;rounded=0;glass=0;sketch=0;" parent="hB3vme4C9sljqm-L_a4m-7" vertex="1">
          <mxGeometry y="90" width="360" height="30" as="geometry" />
        </mxCell>
        <mxCell id="hB3vme4C9sljqm-L_a4m-12" value="&lt;div&gt;Payment&lt;/div&gt;" style="swimlane;fontStyle=0;childLayout=stackLayout;horizontal=1;startSize=30;horizontalStack=0;resizeParent=1;resizeParentMax=0;resizeLast=0;collapsible=1;marginBottom=0;whiteSpace=wrap;html=1;rounded=0;glass=0;sketch=0;swimlaneLine=1;" parent="1" vertex="1">
          <mxGeometry x="680" y="240" width="360" height="120" as="geometry">
            <mxRectangle x="620" y="180" width="60" height="30" as="alternateBounds" />
          </mxGeometry>
        </mxCell>
        <mxCell id="hB3vme4C9sljqm-L_a4m-13" value="&lt;div&gt;-Amount: Numeric&lt;/div&gt;&lt;div&gt;-Date: Date&lt;br&gt;&lt;/div&gt;" style="text;strokeColor=none;fillColor=none;align=left;verticalAlign=middle;spacingLeft=4;spacingRight=4;overflow=hidden;points=[[0,0.5],[1,0.5]];portConstraint=eastwest;rotatable=0;whiteSpace=wrap;html=1;rounded=0;glass=0;sketch=0;" parent="hB3vme4C9sljqm-L_a4m-12" vertex="1">
          <mxGeometry y="30" width="360" height="60" as="geometry" />
        </mxCell>
        <mxCell id="hB3vme4C9sljqm-L_a4m-14" value="+createPaymentRecord" style="text;strokeColor=default;fillColor=none;align=left;verticalAlign=middle;spacingLeft=4;spacingRight=4;overflow=hidden;points=[[0,0.5],[1,0.5]];portConstraint=eastwest;rotatable=0;whiteSpace=wrap;html=1;rounded=0;glass=0;sketch=0;" parent="hB3vme4C9sljqm-L_a4m-12" vertex="1">
          <mxGeometry y="90" width="360" height="30" as="geometry" />
        </mxCell>
        <mxCell id="hB3vme4C9sljqm-L_a4m-15" style="edgeStyle=orthogonalEdgeStyle;rounded=0;orthogonalLoop=1;jettySize=auto;html=1;" parent="1" source="hB3vme4C9sljqm-L_a4m-4" target="hB3vme4C9sljqm-L_a4m-12" edge="1">
          <mxGeometry relative="1" as="geometry">
            <Array as="points">
              <mxPoint x="540" y="240" />
              <mxPoint x="540" y="300" />
            </Array>
          </mxGeometry>
        </mxCell>
        <mxCell id="hB3vme4C9sljqm-L_a4m-16" value="1..1" style="edgeLabel;html=1;align=center;verticalAlign=middle;resizable=0;points=[];" parent="hB3vme4C9sljqm-L_a4m-15" vertex="1" connectable="0">
          <mxGeometry x="-0.7176" y="1" relative="1" as="geometry">
            <mxPoint x="-28" y="1" as="offset" />
          </mxGeometry>
        </mxCell>
        <mxCell id="hB3vme4C9sljqm-L_a4m-17" value="0...*" style="edgeLabel;html=1;align=center;verticalAlign=middle;resizable=0;points=[];" parent="hB3vme4C9sljqm-L_a4m-15" vertex="1" connectable="0">
          <mxGeometry x="0.7941" y="1" relative="1" as="geometry">
            <mxPoint x="15" as="offset" />
          </mxGeometry>
        </mxCell>
        <mxCell id="hB3vme4C9sljqm-L_a4m-18" value="&lt;div&gt;Ticket&lt;/div&gt;" style="swimlane;fontStyle=0;childLayout=stackLayout;horizontal=1;startSize=30;horizontalStack=0;resizeParent=1;resizeParentMax=0;resizeLast=0;collapsible=1;marginBottom=0;whiteSpace=wrap;html=1;rounded=0;glass=0;sketch=0;swimlaneLine=1;" parent="1" vertex="1">
          <mxGeometry x="680" y="390" width="360" height="160" as="geometry">
            <mxRectangle x="620" y="180" width="60" height="30" as="alternateBounds" />
          </mxGeometry>
        </mxCell>
        <mxCell id="hB3vme4C9sljqm-L_a4m-19" value="&lt;div&gt;-SubmitDate: Date&lt;/div&gt;&lt;div&gt;-Content: String&lt;/div&gt;&lt;div&gt;-Response: String&lt;/div&gt;&lt;div&gt;-Attachments: FileData&lt;br&gt;&lt;/div&gt;&lt;div&gt;-OpenStatus: Boolean&lt;br&gt;&lt;/div&gt;" style="text;strokeColor=none;fillColor=none;align=left;verticalAlign=middle;spacingLeft=4;spacingRight=4;overflow=hidden;points=[[0,0.5],[1,0.5]];portConstraint=eastwest;rotatable=0;whiteSpace=wrap;html=1;rounded=0;glass=0;sketch=0;" parent="hB3vme4C9sljqm-L_a4m-18" vertex="1">
          <mxGeometry y="30" width="360" height="80" as="geometry" />
        </mxCell>
        <mxCell id="hB3vme4C9sljqm-L_a4m-20" value="&lt;div&gt;+createTicket&lt;/div&gt;&lt;div&gt;+respond&lt;/div&gt;&lt;div&gt;+closeTicket&lt;br&gt;&lt;/div&gt;" style="text;strokeColor=default;fillColor=none;align=left;verticalAlign=middle;spacingLeft=4;spacingRight=4;overflow=hidden;points=[[0,0.5],[1,0.5]];portConstraint=eastwest;rotatable=0;whiteSpace=wrap;html=1;rounded=0;glass=0;sketch=0;" parent="hB3vme4C9sljqm-L_a4m-18" vertex="1">
          <mxGeometry y="110" width="360" height="50" as="geometry" />
        </mxCell>
        <mxCell id="hB3vme4C9sljqm-L_a4m-21" style="edgeStyle=orthogonalEdgeStyle;rounded=0;orthogonalLoop=1;jettySize=auto;html=1;" parent="1" source="hB3vme4C9sljqm-L_a4m-4" target="hB3vme4C9sljqm-L_a4m-18" edge="1">
          <mxGeometry relative="1" as="geometry">
            <Array as="points">
              <mxPoint x="540" y="330" />
              <mxPoint x="540" y="470" />
            </Array>
          </mxGeometry>
        </mxCell>
        <mxCell id="hB3vme4C9sljqm-L_a4m-22" value="1..1" style="edgeLabel;html=1;align=center;verticalAlign=middle;resizable=0;points=[];" parent="hB3vme4C9sljqm-L_a4m-21" vertex="1" connectable="0">
          <mxGeometry x="-0.7667" y="2" relative="1" as="geometry">
            <mxPoint x="-29" y="2" as="offset" />
          </mxGeometry>
        </mxCell>
        <mxCell id="hB3vme4C9sljqm-L_a4m-23" value="0..*" style="edgeLabel;html=1;align=center;verticalAlign=middle;resizable=0;points=[];" parent="hB3vme4C9sljqm-L_a4m-21" vertex="1" connectable="0">
          <mxGeometry x="0.819" y="2" relative="1" as="geometry">
            <mxPoint x="18" as="offset" />
          </mxGeometry>
        </mxCell>
        <mxCell id="tCIc7TTYxGLn4JjtGP00-12" style="edgeStyle=orthogonalEdgeStyle;rounded=0;orthogonalLoop=1;jettySize=auto;html=1;" parent="1" source="tCIc7TTYxGLn4JjtGP00-1" target="tCIc7TTYxGLn4JjtGP00-7" edge="1">
          <mxGeometry relative="1" as="geometry" />
        </mxCell>
        <mxCell id="tCIc7TTYxGLn4JjtGP00-13" value="1..1" style="edgeLabel;html=1;align=center;verticalAlign=middle;resizable=0;points=[];" parent="tCIc7TTYxGLn4JjtGP00-12" vertex="1" connectable="0">
          <mxGeometry x="-0.9077" y="1" relative="1" as="geometry">
            <mxPoint x="-11" y="1" as="offset" />
          </mxGeometry>
        </mxCell>
        <mxCell id="tCIc7TTYxGLn4JjtGP00-14" value="0..*" style="edgeLabel;html=1;align=center;verticalAlign=middle;resizable=0;points=[];" parent="tCIc7TTYxGLn4JjtGP00-12" vertex="1" connectable="0">
          <mxGeometry x="0.5692" y="3" relative="1" as="geometry">
            <mxPoint x="78" as="offset" />
          </mxGeometry>
        </mxCell>
        <mxCell id="EnAlKBGCW-vSRo4ymncd-8" style="edgeStyle=orthogonalEdgeStyle;rounded=0;orthogonalLoop=1;jettySize=auto;html=1;" edge="1" parent="1" source="tCIc7TTYxGLn4JjtGP00-1" target="EnAlKBGCW-vSRo4ymncd-2">
          <mxGeometry relative="1" as="geometry" />
        </mxCell>
        <mxCell id="EnAlKBGCW-vSRo4ymncd-10" value="0..*" style="edgeLabel;html=1;align=center;verticalAlign=middle;resizable=0;points=[];" vertex="1" connectable="0" parent="EnAlKBGCW-vSRo4ymncd-8">
          <mxGeometry x="0.75" y="-4" relative="1" as="geometry">
            <mxPoint x="-4" y="5" as="offset" />
          </mxGeometry>
        </mxCell>
        <mxCell id="EnAlKBGCW-vSRo4ymncd-11" value="1..1" style="edgeLabel;html=1;align=center;verticalAlign=middle;resizable=0;points=[];" vertex="1" connectable="0" parent="EnAlKBGCW-vSRo4ymncd-8">
          <mxGeometry x="-0.65" relative="1" as="geometry">
            <mxPoint y="11" as="offset" />
          </mxGeometry>
        </mxCell>
        <mxCell id="tCIc7TTYxGLn4JjtGP00-1" value="Administrator" style="swimlane;fontStyle=0;childLayout=stackLayout;horizontal=1;startSize=30;horizontalStack=0;resizeParent=1;resizeParentMax=0;resizeLast=0;collapsible=1;marginBottom=0;whiteSpace=wrap;html=1;rounded=0;glass=0;sketch=0;swimlaneLine=1;" parent="1" vertex="1">
          <mxGeometry x="40" y="710" width="360" height="260" as="geometry">
            <mxRectangle x="620" y="180" width="60" height="30" as="alternateBounds" />
          </mxGeometry>
        </mxCell>
        <mxCell id="tCIc7TTYxGLn4JjtGP00-2" value="&lt;div&gt;-AdminID: Numeric&lt;br&gt;&lt;/div&gt;&lt;div&gt;-Username: String&lt;/div&gt;&lt;div&gt;-PassHash: Hash&lt;/div&gt;&lt;div&gt;-Email: String&lt;/div&gt;&lt;div&gt;-PhoneNumber: Numeric&lt;br&gt;&lt;/div&gt;" style="text;strokeColor=none;fillColor=none;align=left;verticalAlign=middle;spacingLeft=4;spacingRight=4;overflow=hidden;points=[[0,0.5],[1,0.5]];portConstraint=eastwest;rotatable=0;whiteSpace=wrap;html=1;rounded=0;glass=0;sketch=0;" parent="tCIc7TTYxGLn4JjtGP00-1" vertex="1">
          <mxGeometry y="30" width="360" height="90" as="geometry" />
        </mxCell>
        <mxCell id="tCIc7TTYxGLn4JjtGP00-3" value="&lt;div&gt;+login&lt;/div&gt;&lt;div&gt;+logout&lt;/div&gt;&lt;div&gt;+blockUser&lt;/div&gt;&lt;div&gt;+getForwardedTickets&lt;/div&gt;&lt;div&gt;+sendMessage&lt;/div&gt;&lt;div&gt;+makeBlogPost&lt;/div&gt;&lt;div&gt;+removeBlogPost&lt;/div&gt;&lt;div&gt;+acceptComment&lt;/div&gt;&lt;div&gt;+removeComment&lt;br&gt;&lt;/div&gt;" style="text;strokeColor=default;fillColor=none;align=left;verticalAlign=middle;spacingLeft=4;spacingRight=4;overflow=hidden;points=[[0,0.5],[1,0.5]];portConstraint=eastwest;rotatable=0;whiteSpace=wrap;html=1;rounded=0;glass=0;sketch=0;" parent="tCIc7TTYxGLn4JjtGP00-1" vertex="1">
          <mxGeometry y="120" width="360" height="140" as="geometry" />
        </mxCell>
        <mxCell id="tCIc7TTYxGLn4JjtGP00-10" value="&lt;div&gt;1,,1&lt;/div&gt;" style="edgeStyle=orthogonalEdgeStyle;rounded=0;orthogonalLoop=1;jettySize=auto;html=1;entryX=0.5;entryY=0;entryDx=0;entryDy=0;" parent="1" source="tCIc7TTYxGLn4JjtGP00-4" target="tCIc7TTYxGLn4JjtGP00-7" edge="1">
          <mxGeometry x="0.6364" relative="1" as="geometry">
            <Array as="points">
              <mxPoint x="860" y="810" />
              <mxPoint x="860" y="810" />
            </Array>
            <mxPoint as="offset" />
          </mxGeometry>
        </mxCell>
        <mxCell id="tCIc7TTYxGLn4JjtGP00-11" value="&lt;div&gt;0..*&lt;/div&gt;" style="edgeLabel;html=1;align=center;verticalAlign=middle;resizable=0;points=[];" parent="tCIc7TTYxGLn4JjtGP00-10" vertex="1" connectable="0">
          <mxGeometry x="-0.2727" y="3" relative="1" as="geometry">
            <mxPoint x="-3" y="-30" as="offset" />
          </mxGeometry>
        </mxCell>
        <mxCell id="tCIc7TTYxGLn4JjtGP00-4" value="Comment" style="swimlane;fontStyle=0;childLayout=stackLayout;horizontal=1;startSize=30;horizontalStack=0;resizeParent=1;resizeParentMax=0;resizeLast=0;collapsible=1;marginBottom=0;whiteSpace=wrap;html=1;rounded=0;glass=0;sketch=0;swimlaneLine=1;" parent="1" vertex="1">
          <mxGeometry x="680" y="600" width="360" height="130" as="geometry">
            <mxRectangle x="620" y="180" width="60" height="30" as="alternateBounds" />
          </mxGeometry>
        </mxCell>
        <mxCell id="tCIc7TTYxGLn4JjtGP00-5" value="&lt;div&gt;-PosterName: String&lt;/div&gt;&lt;div&gt;-PosterEmail: String&lt;/div&gt;&lt;div&gt;-Content: String&lt;/div&gt;&lt;div&gt;-VerificationStatus: Enum&lt;br&gt;&lt;/div&gt;" style="text;strokeColor=none;fillColor=none;align=left;verticalAlign=middle;spacingLeft=4;spacingRight=4;overflow=hidden;points=[[0,0.5],[1,0.5]];portConstraint=eastwest;rotatable=0;whiteSpace=wrap;html=1;rounded=0;glass=0;sketch=0;" parent="tCIc7TTYxGLn4JjtGP00-4" vertex="1">
          <mxGeometry y="30" width="360" height="70" as="geometry" />
        </mxCell>
        <mxCell id="tCIc7TTYxGLn4JjtGP00-6" value="+createComment" style="text;strokeColor=default;fillColor=none;align=left;verticalAlign=middle;spacingLeft=4;spacingRight=4;overflow=hidden;points=[[0,0.5],[1,0.5]];portConstraint=eastwest;rotatable=0;whiteSpace=wrap;html=1;rounded=0;glass=0;sketch=0;" parent="tCIc7TTYxGLn4JjtGP00-4" vertex="1">
          <mxGeometry y="100" width="360" height="30" as="geometry" />
        </mxCell>
        <mxCell id="tCIc7TTYxGLn4JjtGP00-7" value="BlogPost" style="swimlane;fontStyle=0;childLayout=stackLayout;horizontal=1;startSize=30;horizontalStack=0;resizeParent=1;resizeParentMax=0;resizeLast=0;collapsible=1;marginBottom=0;whiteSpace=wrap;html=1;rounded=0;glass=0;sketch=0;swimlaneLine=1;" parent="1" vertex="1">
          <mxGeometry x="680" y="840" width="360" height="130" as="geometry">
            <mxRectangle x="620" y="180" width="60" height="30" as="alternateBounds" />
          </mxGeometry>
        </mxCell>
        <mxCell id="tCIc7TTYxGLn4JjtGP00-8" value="&lt;div&gt;-Title: String&lt;/div&gt;&lt;div&gt;-Content: FileData&lt;/div&gt;&lt;div&gt;-PostDate: Date&lt;/div&gt;" style="text;strokeColor=none;fillColor=none;align=left;verticalAlign=middle;spacingLeft=4;spacingRight=4;overflow=hidden;points=[[0,0.5],[1,0.5]];portConstraint=eastwest;rotatable=0;whiteSpace=wrap;html=1;rounded=0;glass=0;sketch=0;" parent="tCIc7TTYxGLn4JjtGP00-7" vertex="1">
          <mxGeometry y="30" width="360" height="70" as="geometry" />
        </mxCell>
        <mxCell id="tCIc7TTYxGLn4JjtGP00-9" value="+createBlogPost" style="text;strokeColor=default;fillColor=none;align=left;verticalAlign=middle;spacingLeft=4;spacingRight=4;overflow=hidden;points=[[0,0.5],[1,0.5]];portConstraint=eastwest;rotatable=0;whiteSpace=wrap;html=1;rounded=0;glass=0;sketch=0;" parent="tCIc7TTYxGLn4JjtGP00-7" vertex="1">
          <mxGeometry y="100" width="360" height="30" as="geometry" />
        </mxCell>
        <mxCell id="tCIc7TTYxGLn4JjtGP00-18" value="0..1" style="edgeStyle=orthogonalEdgeStyle;rounded=0;orthogonalLoop=1;jettySize=auto;html=1;startArrow=none;startFill=0;" parent="1" source="tCIc7TTYxGLn4JjtGP00-15" target="hB3vme4C9sljqm-L_a4m-18" edge="1">
          <mxGeometry x="-0.7872" relative="1" as="geometry">
            <mxPoint x="1" as="offset" />
          </mxGeometry>
        </mxCell>
        <mxCell id="tCIc7TTYxGLn4JjtGP00-19" value="0..*" style="edgeLabel;html=1;align=center;verticalAlign=middle;resizable=0;points=[];" parent="tCIc7TTYxGLn4JjtGP00-18" vertex="1" connectable="0">
          <mxGeometry x="-0.0929" y="1" relative="1" as="geometry">
            <mxPoint x="-98" y="113" as="offset" />
          </mxGeometry>
        </mxCell>
        <mxCell id="EnAlKBGCW-vSRo4ymncd-1" value="0..*" style="edgeLabel;html=1;align=center;verticalAlign=middle;resizable=0;points=[];" vertex="1" connectable="0" parent="tCIc7TTYxGLn4JjtGP00-18">
          <mxGeometry x="0.1587" y="5" relative="1" as="geometry">
            <mxPoint x="-79" y="-5" as="offset" />
          </mxGeometry>
        </mxCell>
        <mxCell id="tCIc7TTYxGLn4JjtGP00-15" value="SupportStaff" style="swimlane;fontStyle=0;childLayout=stackLayout;horizontal=1;startSize=30;horizontalStack=0;resizeParent=1;resizeParentMax=0;resizeLast=0;collapsible=1;marginBottom=0;whiteSpace=wrap;html=1;rounded=0;glass=0;sketch=0;swimlaneLine=1;" parent="1" vertex="1">
          <mxGeometry x="1275" y="345" width="360" height="250" as="geometry">
            <mxRectangle x="620" y="180" width="60" height="30" as="alternateBounds" />
          </mxGeometry>
        </mxCell>
        <mxCell id="tCIc7TTYxGLn4JjtGP00-16" value="&lt;div&gt;-SupportID: Numeric&lt;br&gt;&lt;/div&gt;&lt;div&gt;-Username: String&lt;/div&gt;&lt;div&gt;-PassHash: Hash&lt;/div&gt;&lt;div&gt;-Email: String&lt;/div&gt;&lt;div&gt;-PhoneNumber: Numeric&lt;br&gt;&lt;/div&gt;" style="text;strokeColor=none;fillColor=none;align=left;verticalAlign=middle;spacingLeft=4;spacingRight=4;overflow=hidden;points=[[0,0.5],[1,0.5]];portConstraint=eastwest;rotatable=0;whiteSpace=wrap;html=1;rounded=0;glass=0;sketch=0;" parent="tCIc7TTYxGLn4JjtGP00-15" vertex="1">
          <mxGeometry y="30" width="360" height="80" as="geometry" />
        </mxCell>
        <mxCell id="tCIc7TTYxGLn4JjtGP00-17" value="&lt;div&gt;+login&lt;/div&gt;&lt;div&gt;+logout&lt;/div&gt;&lt;div&gt;+respondToTicket&lt;/div&gt;&lt;div&gt;+closeTicket&lt;/div&gt;&lt;div&gt;+forwardTicket&lt;br&gt;&lt;/div&gt;" style="text;strokeColor=default;fillColor=none;align=left;verticalAlign=middle;spacingLeft=4;spacingRight=4;overflow=hidden;points=[[0,0.5],[1,0.5]];portConstraint=eastwest;rotatable=0;whiteSpace=wrap;html=1;rounded=0;glass=0;sketch=0;" parent="tCIc7TTYxGLn4JjtGP00-15" vertex="1">
          <mxGeometry y="110" width="360" height="140" as="geometry" />
        </mxCell>
        <mxCell id="tCIc7TTYxGLn4JjtGP00-21" value="SendOrder" style="swimlane;fontStyle=0;childLayout=stackLayout;horizontal=1;startSize=30;horizontalStack=0;resizeParent=1;resizeParentMax=0;resizeLast=0;collapsible=1;marginBottom=0;whiteSpace=wrap;html=1;rounded=0;glass=0;sketch=0;swimlaneLine=1;" parent="1" vertex="1">
          <mxGeometry x="1275" y="70" width="360" height="100" as="geometry">
            <mxRectangle x="620" y="180" width="60" height="30" as="alternateBounds" />
          </mxGeometry>
        </mxCell>
        <mxCell id="tCIc7TTYxGLn4JjtGP00-22" value="&lt;div&gt;-OrderType: Enum&lt;/div&gt;&lt;div&gt;-Date: Date&lt;/div&gt;" style="text;strokeColor=none;fillColor=none;align=left;verticalAlign=middle;spacingLeft=4;spacingRight=4;overflow=hidden;points=[[0,0.5],[1,0.5]];portConstraint=eastwest;rotatable=0;whiteSpace=wrap;html=1;rounded=0;glass=0;sketch=0;" parent="tCIc7TTYxGLn4JjtGP00-21" vertex="1">
          <mxGeometry y="30" width="360" height="40" as="geometry" />
        </mxCell>
        <mxCell id="tCIc7TTYxGLn4JjtGP00-23" value="+createSendOrder" style="text;strokeColor=default;fillColor=none;align=left;verticalAlign=middle;spacingLeft=4;spacingRight=4;overflow=hidden;points=[[0,0.5],[1,0.5]];portConstraint=eastwest;rotatable=0;whiteSpace=wrap;html=1;rounded=0;glass=0;sketch=0;" parent="tCIc7TTYxGLn4JjtGP00-21" vertex="1">
          <mxGeometry y="70" width="360" height="30" as="geometry" />
        </mxCell>
        <mxCell id="EnAlKBGCW-vSRo4ymncd-2" value="Message" style="swimlane;fontStyle=0;childLayout=stackLayout;horizontal=1;startSize=30;horizontalStack=0;resizeParent=1;resizeParentMax=0;resizeLast=0;collapsible=1;marginBottom=0;whiteSpace=wrap;html=1;rounded=0;glass=0;sketch=0;swimlaneLine=1;" vertex="1" parent="1">
          <mxGeometry x="40" y="480" width="360" height="110" as="geometry">
            <mxRectangle x="620" y="180" width="60" height="30" as="alternateBounds" />
          </mxGeometry>
        </mxCell>
        <mxCell id="EnAlKBGCW-vSRo4ymncd-3" value="-Content: String&lt;br&gt;-Date: Date" style="text;strokeColor=none;fillColor=none;align=left;verticalAlign=middle;spacingLeft=4;spacingRight=4;overflow=hidden;points=[[0,0.5],[1,0.5]];portConstraint=eastwest;rotatable=0;whiteSpace=wrap;html=1;rounded=0;glass=0;sketch=0;" vertex="1" parent="EnAlKBGCW-vSRo4ymncd-2">
          <mxGeometry y="30" width="360" height="50" as="geometry" />
        </mxCell>
        <mxCell id="EnAlKBGCW-vSRo4ymncd-4" value="+createMessage" style="text;strokeColor=default;fillColor=none;align=left;verticalAlign=middle;spacingLeft=4;spacingRight=4;overflow=hidden;points=[[0,0.5],[1,0.5]];portConstraint=eastwest;rotatable=0;whiteSpace=wrap;html=1;rounded=0;glass=0;sketch=0;" vertex="1" parent="EnAlKBGCW-vSRo4ymncd-2">
          <mxGeometry y="80" width="360" height="30" as="geometry" />
        </mxCell>
      </root>
    </mxGraphModel>
  </diagram>
</mxfile>
